Coordinates
version=1
nRows=8
nColumns=63
inDegrees=yes

Units are S.I. units (second, meters, Newtons, ...)
If the header above contains a line with 'inDegrees', this indicates whether rotational values are in degrees (yes) or radians (no).

endheader
time	pelvis_tilt	pelvis_list	pelvis_rotation	pelvis_tx	pelvis_ty	pelvis_tz	hip_flexion_r	hip_adduction_r	hip_rotation_r	knee_angle_r	knee_angle_r_beta	ankle_angle_r	subtalar_angle_r	mtp_angle_r	hip_flexion_l	hip_adduction_l	hip_rotation_l	knee_angle_l	knee_angle_l_beta	ankle_angle_l	subtalar_angle_l	mtp_angle_l	L5_S1_Flex_Ext	L5_S1_Lat_Bending	L5_S1_axial_rotation	L4_L5_Flex_Ext	L4_L5_Lat_Bending	L4_L5_axial_rotation	L3_L4_Flex_Ext	L3_L4_Lat_Bending	L3_L4_axial_rotation	L2_L3_Flex_Ext	L2_L3_Lat_Bending	L2_L3_axial_rotation	L1_L2_Flex_Ext	L1_L2_Lat_Bending	L1_L2_axial_rotation	L1_T12_Flex_Ext	L1_T12_Lat_Bending	L1_T12_axial_rotation	Abs_r3	Abs_r2	Abs_r1	Abs_t1	Abs_t2	neck_flexion	neck_bending	neck_rotation	arm_flex_r	arm_add_r	arm_rot_r	elbow_flex_r	pro_sup_r	wrist_flex_r	wrist_dev_r	arm_flex_l	arm_add_l	arm_rot_l	elbow_flex_l	pro_sup_l	wrist_flex_l	wrist_dev_l
2.300000	-0.336754	-2.135677	82.617565	0.196322	0.870109	0.654321	2.399255	-1.475064	-5.104887	10.190962	0.177866	33.035801	17.677421	0.000000	0.425511	0.992877	8.553675	7.129081	0.124426	24.446108	-12.952258	0.000000	-0.374880	0.245508	0.604630	-0.696190	0.326526	0.642419	-0.615891	0.596929	0.642419	-0.428451	0.596929	0.529051	-0.348114	0.500641	0.491262	-0.214207	0.380293	0.453472	-2.677732	2.777241	3.362769	0.000000	0.000000	24.800133	-2.184264	3.134936	7.234350	-11.769567	117.365540	8.185193	3.433412	-3.054249	-12.232482	9.659328	-8.827475	120.047809	11.477741	5.955807	-7.527297	-12.482651
2.316667	-0.370514	-2.063417	82.345462	0.196710	0.870291	0.653845	2.329537	-1.510998	-4.798774	10.218526	0.178347	33.017245	17.677890	0.000000	0.227571	1.036270	8.439497	6.989579	0.121991	24.339419	-13.173313	0.000000	-0.378953	0.241150	0.647039	-0.703754	0.320730	0.687479	-0.622582	0.586333	0.687479	-0.433106	0.586333	0.566159	-0.351896	0.491754	0.525719	-0.216534	0.373542	0.485279	-2.706825	2.727941	3.598637	0.000000	0.000000	24.754998	-2.069969	3.197803	7.215699	-11.748385	117.366504	8.181564	3.443221	-3.012142	-12.216580	9.662084	-8.956649	119.699532	11.781855	6.174918	-7.530065	-12.342782
2.333333	-0.413324	-1.998169	82.102991	0.197058	0.870450	0.653434	2.268170	-1.553342	-4.486797	10.245681	0.178821	32.955324	17.645793	0.000000	0.053758	1.085756	8.318026	6.877575	0.120036	24.221578	-13.419717	0.000000	-0.381669	0.235688	0.683924	-0.708798	0.313464	0.726669	-0.627045	0.573051	0.726669	-0.436210	0.573051	0.598433	-0.354418	0.480614	0.555688	-0.218086	0.365080	0.512943	-2.726227	2.666145	3.803779	0.000000	0.000000	24.706618	-1.905789	3.292603	7.207199	-11.721060	117.367460	8.184459	3.446587	-2.961095	-12.182958	9.653266	-9.074600	119.412117	12.038490	6.337763	-7.502731	-12.208115
2.350000	-0.463006	-1.944747	81.917222	0.197326	0.870579	0.653129	2.216704	-1.601443	-4.213985	10.264795	0.179154	32.854107	17.596585	0.000000	-0.074514	1.137015	8.165450	6.817332	0.118985	24.116384	-13.609189	0.000000	-0.383380	0.229412	0.710824	-0.711976	0.305118	0.755251	-0.629856	0.557792	0.755251	-0.438165	0.557792	0.621971	-0.356007	0.467817	0.577545	-0.219064	0.355359	0.533118	-2.738447	2.595155	3.953390	0.000000	0.000000	24.667934	-1.710032	3.393661	7.213452	-11.686689	117.396627	8.189193	3.427699	-2.901552	-12.138731	9.633039	-9.180404	119.139828	12.240761	6.493775	-7.461615	-12.076748
2.366667	-0.516479	-1.909117	81.793731	0.197490	0.870668	0.652953	2.182002	-1.652203	-3.980606	10.277183	0.179371	32.721749	17.526548	0.000000	-0.147866	1.189218	8.013254	6.809788	0.118853	24.024979	-13.753985	0.000000	-0.384132	0.222851	0.727370	-0.713372	0.296392	0.772830	-0.631091	0.541841	0.772830	-0.439025	0.541841	0.636448	-0.356705	0.454439	0.590988	-0.219493	0.345197	0.545527	-2.743818	2.520941	4.045411	0.000000	0.000000	24.649136	-1.504011	3.489143	7.234600	-11.649179	117.415189	8.193646	3.411310	-2.836103	-12.077582	9.608850	-9.265696	118.943270	12.383401	6.592864	-7.413717	-11.948542
2.383333	-0.575258	-1.893640	81.743761	0.197524	0.870712	0.652910	2.163348	-1.707797	-3.785791	10.280336	0.179426	32.569527	17.429299	0.000000	-0.164104	1.248581	7.925959	6.849971	0.119555	23.937348	-13.905204	0.000000	-0.383970	0.215902	0.732101	-0.713070	0.287149	0.777857	-0.630824	0.524943	0.777857	-0.438839	0.524943	0.640588	-0.356554	0.440266	0.594832	-0.219400	0.334431	0.549076	-2.742657	2.442321	4.071725	0.000000	0.000000	24.655605	-1.301117	3.558240	7.268017	-11.608601	117.418087	8.196830	3.389348	-2.777917	-12.007402	9.592494	-9.325549	118.903636	12.461437	6.597312	-7.358170	-11.828801
2.400000	-0.634545	-1.903392	81.770648	0.197420	0.870702	0.652990	2.161688	-1.763765	-3.647361	10.269405	0.179235	32.408421	17.331794	0.000000	-0.119322	1.310233	7.906798	6.935332	0.121044	23.862090	-14.047380	0.000000	-0.382321	0.209224	0.723336	-0.710009	0.278268	0.768545	-0.628116	0.508707	0.768545	-0.436955	0.508707	0.632919	-0.355024	0.426650	0.587711	-0.218458	0.324088	0.542502	-2.730884	2.366785	4.022979	0.000000	0.000000	24.691102	-1.100148	3.608945	7.317372	-11.568188	117.437263	8.196798	3.360373	-2.727087	-11.928770	9.573016	-9.375243	118.808392	12.511170	6.627722	-7.310449	-11.717775
2.416667	-0.687345	-1.936618	81.880642	0.197174	0.870644	0.653201	2.172414	-1.811707	-3.561389	10.238558	0.178697	32.242395	17.222284	0.000000	-0.010277	1.363418	7.908152	7.076134	0.123502	23.832370	-14.091339	0.000000	-0.379749	0.203705	0.701238	-0.705232	0.270928	0.745065	-0.623890	0.495289	0.745065	-0.434015	0.495289	0.613583	-0.352635	0.415395	0.569755	-0.216989	0.315539	0.525928	-2.712511	2.304353	3.900073	0.000000	0.000000	24.753257	-0.919250	3.630274	7.378922	-11.535942	117.422301	8.204616	3.330649	-2.685970	-11.848705	9.571545	-9.404034	118.835471	12.524462	6.581416	-7.261206	-11.622665
